<svg width="23" height="16" viewBox="0 0 23 16" fill="none" xmlns="http://www.w3.org/2000/svg">
<rect width="23" height="15" rx="3" fill="#7289DA"/>
<path d="M2.65381 4.55762H5.229C5.73877 4.55762 6.11816 4.57959 6.36719 4.62354C6.61914 4.66455 6.84326 4.75244 7.03955 4.88721C7.23877 5.02197 7.4043 5.20215 7.53613 5.42773C7.66797 5.65039 7.73389 5.90088 7.73389 6.1792C7.73389 6.48096 7.65186 6.75781 7.48779 7.00977C7.32666 7.26172 7.10693 7.45068 6.82861 7.57666C7.22119 7.69092 7.52295 7.88574 7.73389 8.16113C7.94482 8.43652 8.05029 8.76025 8.05029 9.13232C8.05029 9.42529 7.98145 9.71094 7.84375 9.98926C7.70898 10.2646 7.52295 10.4858 7.28564 10.6528C7.05127 10.8169 6.76123 10.918 6.41553 10.9561C6.19873 10.9795 5.67578 10.9941 4.84668 11H2.65381V4.55762ZM3.95459 5.62988V7.11963H4.80713C5.31396 7.11963 5.62891 7.1123 5.75195 7.09766C5.97461 7.07129 6.14893 6.99512 6.2749 6.86914C6.40381 6.74023 6.46826 6.57178 6.46826 6.36377C6.46826 6.16455 6.4126 6.00342 6.30127 5.88037C6.19287 5.75439 6.03027 5.67822 5.81348 5.65186C5.68457 5.63721 5.31396 5.62988 4.70166 5.62988H3.95459ZM3.95459 8.19189V9.91455H5.15869C5.62744 9.91455 5.9248 9.90137 6.05078 9.875C6.24414 9.83984 6.40088 9.75488 6.521 9.62012C6.64404 9.48242 6.70557 9.29932 6.70557 9.0708C6.70557 8.87744 6.65869 8.71338 6.56494 8.57861C6.47119 8.44385 6.33496 8.3457 6.15625 8.28418C5.98047 8.22266 5.59668 8.19189 5.00488 8.19189H3.95459ZM8.88965 7.81836C8.88965 7.16211 8.98779 6.61133 9.18408 6.16602C9.33057 5.83789 9.52979 5.54346 9.78174 5.28271C10.0366 5.02197 10.3149 4.82861 10.6167 4.70264C11.0181 4.53271 11.481 4.44775 12.0054 4.44775C12.9546 4.44775 13.7134 4.74219 14.2817 5.33105C14.853 5.91992 15.1387 6.73877 15.1387 7.7876C15.1387 8.82764 14.856 9.64209 14.2905 10.231C13.7251 10.8169 12.9692 11.1099 12.0229 11.1099C11.0649 11.1099 10.3032 10.8184 9.73779 10.2354C9.17236 9.64941 8.88965 8.84375 8.88965 7.81836ZM10.23 7.77441C10.23 8.50391 10.3984 9.05762 10.7354 9.43555C11.0723 9.81055 11.5 9.99805 12.0186 9.99805C12.5371 9.99805 12.9619 9.81201 13.293 9.43994C13.627 9.06494 13.7939 8.50391 13.7939 7.75684C13.7939 7.01855 13.6313 6.46777 13.3062 6.10449C12.9839 5.74121 12.5547 5.55957 12.0186 5.55957C11.4824 5.55957 11.0503 5.74414 10.7222 6.11328C10.394 6.47949 10.23 7.0332 10.23 7.77441ZM17.6084 11V5.64746H15.6968V4.55762H20.8164V5.64746H18.9092V11H17.6084Z" fill="white"/>
</svg>
