<svg width="114" height="103" viewBox="0 0 114 103" fill="none" xmlns="http://www.w3.org/2000/svg">
<path d="M39.2773 18V0.820312H42.6523L49.6836 12.293V0.820312H52.9062V18H49.4258L42.5 6.79688V18H39.2773ZM55.8008 11.6016C55.8008 10.5078 56.0703 9.44922 56.6094 8.42578C57.1484 7.40234 57.9102 6.62109 58.8945 6.08203C59.8867 5.54297 60.9922 5.27344 62.2109 5.27344C64.0938 5.27344 65.6367 5.88672 66.8398 7.11328C68.043 8.33203 68.6445 9.875 68.6445 11.7422C68.6445 13.625 68.0352 15.1875 66.8164 16.4297C65.6055 17.6641 64.0781 18.2812 62.2344 18.2812C61.0938 18.2812 60.0039 18.0234 58.9648 17.5078C57.9336 16.9922 57.1484 16.2383 56.6094 15.2461C56.0703 14.2461 55.8008 13.0312 55.8008 11.6016ZM59.1758 11.7773C59.1758 13.0117 59.4688 13.957 60.0547 14.6133C60.6406 15.2695 61.3633 15.5977 62.2227 15.5977C63.082 15.5977 63.8008 15.2695 64.3789 14.6133C64.9648 13.957 65.2578 13.0039 65.2578 11.7539C65.2578 10.5352 64.9648 9.59766 64.3789 8.94141C63.8008 8.28516 63.082 7.95703 62.2227 7.95703C61.3633 7.95703 60.6406 8.28516 60.0547 8.94141C59.4688 9.59766 59.1758 10.543 59.1758 11.7773ZM76.9414 5.55469V8.17969H74.6914V13.1953C74.6914 14.2109 74.7109 14.8047 74.75 14.9766C74.7969 15.1406 74.8945 15.2773 75.043 15.3867C75.1992 15.4961 75.3867 15.5508 75.6055 15.5508C75.9102 15.5508 76.3516 15.4453 76.9297 15.2344L77.2109 17.7891C76.4453 18.1172 75.5781 18.2812 74.6094 18.2812C74.0156 18.2812 73.4805 18.1836 73.0039 17.9883C72.5273 17.7852 72.1758 17.5273 71.9492 17.2148C71.7305 16.8945 71.5781 16.4648 71.4922 15.9258C71.4219 15.543 71.3867 14.7695 71.3867 13.6055V8.17969H69.875V5.55469H71.3867V3.08203L74.6914 1.16016V5.55469H76.9414ZM3.59375 37.3516L0.605469 36.8125C0.941406 35.6094 1.51953 34.7188 2.33984 34.1406C3.16016 33.5625 4.37891 33.2734 5.99609 33.2734C7.46484 33.2734 8.55859 33.4492 9.27734 33.8008C9.99609 34.1445 10.5 34.5859 10.7891 35.125C11.0859 35.6562 11.2344 36.6367 11.2344 38.0664L11.1992 41.9102C11.1992 43.0039 11.25 43.8125 11.3516 44.3359C11.4609 44.8516 11.6602 45.4062 11.9492 46H8.69141C8.60547 45.7812 8.5 45.457 8.375 45.0273C8.32031 44.832 8.28125 44.7031 8.25781 44.6406C7.69531 45.1875 7.09375 45.5977 6.45312 45.8711C5.8125 46.1445 5.12891 46.2812 4.40234 46.2812C3.12109 46.2812 2.10938 45.9336 1.36719 45.2383C0.632812 44.543 0.265625 43.6641 0.265625 42.6016C0.265625 41.8984 0.433594 41.2734 0.769531 40.7266C1.10547 40.1719 1.57422 39.75 2.17578 39.4609C2.78516 39.1641 3.66016 38.9062 4.80078 38.6875C6.33984 38.3984 7.40625 38.1289 8 37.8789V37.5508C8 36.918 7.84375 36.4688 7.53125 36.2031C7.21875 35.9297 6.62891 35.793 5.76172 35.793C5.17578 35.793 4.71875 35.9102 4.39062 36.1445C4.0625 36.3711 3.79688 36.7734 3.59375 37.3516ZM8 40.0234C7.57812 40.1641 6.91016 40.332 5.99609 40.5273C5.08203 40.7227 4.48438 40.9141 4.20312 41.1016C3.77344 41.4062 3.55859 41.793 3.55859 42.2617C3.55859 42.7227 3.73047 43.1211 4.07422 43.457C4.41797 43.793 4.85547 43.9609 5.38672 43.9609C5.98047 43.9609 6.54688 43.7656 7.08594 43.375C7.48438 43.0781 7.74609 42.7148 7.87109 42.2852C7.95703 42.0039 8 41.4688 8 40.6797V40.0234ZM17.9141 46L12.8984 33.5547H16.3555L18.6992 39.9062L19.3789 42.0273C19.5586 41.4883 19.6719 41.1328 19.7188 40.9609C19.8281 40.6094 19.9453 40.2578 20.0703 39.9062L22.4375 33.5547H25.8242L20.8789 46H17.9141ZM30.3125 37.3516L27.3242 36.8125C27.6602 35.6094 28.2383 34.7188 29.0586 34.1406C29.8789 33.5625 31.0977 33.2734 32.7148 33.2734C34.1836 33.2734 35.2773 33.4492 35.9961 33.8008C36.7148 34.1445 37.2188 34.5859 37.5078 35.125C37.8047 35.6562 37.9531 36.6367 37.9531 38.0664L37.918 41.9102C37.918 43.0039 37.9688 43.8125 38.0703 44.3359C38.1797 44.8516 38.3789 45.4062 38.668 46H35.4102C35.3242 45.7812 35.2188 45.457 35.0938 45.0273C35.0391 44.832 35 44.7031 34.9766 44.6406C34.4141 45.1875 33.8125 45.5977 33.1719 45.8711C32.5312 46.1445 31.8477 46.2812 31.1211 46.2812C29.8398 46.2812 28.8281 45.9336 28.0859 45.2383C27.3516 44.543 26.9844 43.6641 26.9844 42.6016C26.9844 41.8984 27.1523 41.2734 27.4883 40.7266C27.8242 40.1719 28.293 39.75 28.8945 39.4609C29.5039 39.1641 30.3789 38.9062 31.5195 38.6875C33.0586 38.3984 34.125 38.1289 34.7188 37.8789V37.5508C34.7188 36.918 34.5625 36.4688 34.25 36.2031C33.9375 35.9297 33.3477 35.793 32.4805 35.793C31.8945 35.793 31.4375 35.9102 31.1094 36.1445C30.7812 36.3711 30.5156 36.7734 30.3125 37.3516ZM34.7188 40.0234C34.2969 40.1641 33.6289 40.332 32.7148 40.5273C31.8008 40.7227 31.2031 40.9141 30.9219 41.1016C30.4922 41.4062 30.2773 41.793 30.2773 42.2617C30.2773 42.7227 30.4492 43.1211 30.793 43.457C31.1367 43.793 31.5742 43.9609 32.1055 43.9609C32.6992 43.9609 33.2656 43.7656 33.8047 43.375C34.2031 43.0781 34.4648 42.7148 34.5898 42.2852C34.6758 42.0039 34.7188 41.4688 34.7188 40.6797V40.0234ZM41.2109 46V28.8203H44.5039V46H41.2109ZM47.8906 31.8672V28.8203H51.1836V31.8672H47.8906ZM47.8906 46V33.5547H51.1836V46H47.8906ZM54.4297 46V28.8203H57.7227V35.0078C58.7383 33.8516 59.9414 33.2734 61.332 33.2734C62.8477 33.2734 64.1016 33.8242 65.0938 34.9258C66.0859 36.0195 66.582 37.5938 66.582 39.6484C66.582 41.7734 66.0742 43.4102 65.0586 44.5586C64.0508 45.707 62.8242 46.2812 61.3789 46.2812C60.668 46.2812 59.9648 46.1055 59.2695 45.7539C58.582 45.3945 57.9883 44.8672 57.4883 44.1719V46H54.4297ZM57.6992 39.5078C57.6992 40.7969 57.9023 41.75 58.3086 42.3672C58.8789 43.2422 59.6367 43.6797 60.582 43.6797C61.3086 43.6797 61.9258 43.3711 62.4336 42.7539C62.9492 42.1289 63.207 41.1484 63.207 39.8125C63.207 38.3906 62.9492 37.3672 62.4336 36.7422C61.918 36.1094 61.2578 35.793 60.4531 35.793C59.6641 35.793 59.0078 36.1016 58.4844 36.7188C57.9609 37.3281 57.6992 38.2578 57.6992 39.5078ZM69.2422 46V28.8203H72.5352V46H69.2422ZM83.1289 42.0391L86.4102 42.5898C85.9883 43.793 85.3203 44.7109 84.4062 45.3438C83.5 45.9688 82.3633 46.2812 80.9961 46.2812C78.832 46.2812 77.2305 45.5742 76.1914 44.1602C75.3711 43.0273 74.9609 41.5977 74.9609 39.8711C74.9609 37.8086 75.5 36.1953 76.5781 35.0312C77.6562 33.8594 79.0195 33.2734 80.668 33.2734C82.5195 33.2734 83.9805 33.8867 85.0508 35.1133C86.1211 36.332 86.6328 38.2031 86.5859 40.7266H78.3359C78.3594 41.7031 78.625 42.4648 79.1328 43.0117C79.6406 43.5508 80.2734 43.8203 81.0312 43.8203C81.5469 43.8203 81.9805 43.6797 82.332 43.3984C82.6836 43.1172 82.9492 42.6641 83.1289 42.0391ZM83.3164 38.7109C83.293 37.7578 83.0469 37.0352 82.5781 36.543C82.1094 36.043 81.5391 35.793 80.8672 35.793C80.1484 35.793 79.5547 36.0547 79.0859 36.5781C78.6172 37.1016 78.3867 37.8125 78.3945 38.7109H83.3164ZM95.9609 31.8672V28.8203H99.2539V31.8672H95.9609ZM95.9609 46V33.5547H99.2539V46H95.9609ZM113.961 46H110.668V39.6484C110.668 38.3047 110.598 37.4375 110.457 37.0469C110.316 36.6484 110.086 36.3398 109.766 36.1211C109.453 35.9023 109.074 35.793 108.629 35.793C108.059 35.793 107.547 35.9492 107.094 36.2617C106.641 36.5742 106.328 36.9883 106.156 37.5039C105.992 38.0195 105.91 38.9727 105.91 40.3633V46H102.617V33.5547H105.676V35.3828C106.762 33.9766 108.129 33.2734 109.777 33.2734C110.504 33.2734 111.168 33.4062 111.77 33.6719C112.371 33.9297 112.824 34.2617 113.129 34.668C113.441 35.0742 113.656 35.5352 113.773 36.0508C113.898 36.5664 113.961 37.3047 113.961 38.2656V46ZM26.6914 70.4492L29.9961 69.9453C30.1367 70.5859 30.4219 71.0742 30.8516 71.4102C31.2812 71.7383 31.8828 71.9023 32.6562 71.9023C33.5078 71.9023 34.1484 71.7461 34.5781 71.4336C34.8672 71.2148 35.0117 70.9219 35.0117 70.5547C35.0117 70.3047 34.9336 70.0977 34.7773 69.9336C34.6133 69.7773 34.2461 69.6328 33.6758 69.5C31.0195 68.9141 29.3359 68.3789 28.625 67.8945C27.6406 67.2227 27.1484 66.2891 27.1484 65.0938C27.1484 64.0156 27.5742 63.1094 28.4258 62.375C29.2773 61.6406 30.5977 61.2734 32.3867 61.2734C34.0898 61.2734 35.3555 61.5508 36.1836 62.1055C37.0117 62.6602 37.582 63.4805 37.8945 64.5664L34.7891 65.1406C34.6562 64.6562 34.4023 64.2852 34.0273 64.0273C33.6602 63.7695 33.1328 63.6406 32.4453 63.6406C31.5781 63.6406 30.957 63.7617 30.582 64.0039C30.332 64.1758 30.207 64.3984 30.207 64.6719C30.207 64.9062 30.3164 65.1055 30.5352 65.2695C30.832 65.4883 31.8555 65.7969 33.6055 66.1953C35.3633 66.5938 36.5898 67.082 37.2852 67.6602C37.9727 68.2461 38.3164 69.0625 38.3164 70.1094C38.3164 71.25 37.8398 72.2305 36.8867 73.0508C35.9336 73.8711 34.5234 74.2812 32.6562 74.2812C30.9609 74.2812 29.6172 73.9375 28.625 73.25C27.6406 72.5625 26.9961 71.6289 26.6914 70.4492ZM46.918 61.5547V64.1797H44.668V69.1953C44.668 70.2109 44.6875 70.8047 44.7266 70.9766C44.7734 71.1406 44.8711 71.2773 45.0195 71.3867C45.1758 71.4961 45.3633 71.5508 45.582 71.5508C45.8867 71.5508 46.3281 71.4453 46.9062 71.2344L47.1875 73.7891C46.4219 74.1172 45.5547 74.2812 44.5859 74.2812C43.9922 74.2812 43.457 74.1836 42.9805 73.9883C42.5039 73.7852 42.1523 73.5273 41.9258 73.2148C41.707 72.8945 41.5547 72.4648 41.4688 71.9258C41.3984 71.543 41.3633 70.7695 41.3633 69.6055V64.1797H39.8516V61.5547H41.3633V59.082L44.668 57.1602V61.5547H46.918ZM51.6641 65.3516L48.6758 64.8125C49.0117 63.6094 49.5898 62.7188 50.4102 62.1406C51.2305 61.5625 52.4492 61.2734 54.0664 61.2734C55.5352 61.2734 56.6289 61.4492 57.3477 61.8008C58.0664 62.1445 58.5703 62.5859 58.8594 63.125C59.1562 63.6562 59.3047 64.6367 59.3047 66.0664L59.2695 69.9102C59.2695 71.0039 59.3203 71.8125 59.4219 72.3359C59.5312 72.8516 59.7305 73.4062 60.0195 74H56.7617C56.6758 73.7812 56.5703 73.457 56.4453 73.0273C56.3906 72.832 56.3516 72.7031 56.3281 72.6406C55.7656 73.1875 55.1641 73.5977 54.5234 73.8711C53.8828 74.1445 53.1992 74.2812 52.4727 74.2812C51.1914 74.2812 50.1797 73.9336 49.4375 73.2383C48.7031 72.543 48.3359 71.6641 48.3359 70.6016C48.3359 69.8984 48.5039 69.2734 48.8398 68.7266C49.1758 68.1719 49.6445 67.75 50.2461 67.4609C50.8555 67.1641 51.7305 66.9062 52.8711 66.6875C54.4102 66.3984 55.4766 66.1289 56.0703 65.8789V65.5508C56.0703 64.918 55.9141 64.4688 55.6016 64.2031C55.2891 63.9297 54.6992 63.793 53.832 63.793C53.2461 63.793 52.7891 63.9102 52.4609 64.1445C52.1328 64.3711 51.8672 64.7734 51.6641 65.3516ZM56.0703 68.0234C55.6484 68.1641 54.9805 68.332 54.0664 68.5273C53.1523 68.7227 52.5547 68.9141 52.2734 69.1016C51.8438 69.4062 51.6289 69.793 51.6289 70.2617C51.6289 70.7227 51.8008 71.1211 52.1445 71.457C52.4883 71.793 52.9258 71.9609 53.457 71.9609C54.0508 71.9609 54.6172 71.7656 55.1562 71.375C55.5547 71.0781 55.8164 70.7148 55.9414 70.2852C56.0273 70.0039 56.0703 69.4688 56.0703 68.6797V68.0234ZM68.2695 61.5547V64.1797H66.0195V69.1953C66.0195 70.2109 66.0391 70.8047 66.0781 70.9766C66.125 71.1406 66.2227 71.2773 66.3711 71.3867C66.5273 71.4961 66.7148 71.5508 66.9336 71.5508C67.2383 71.5508 67.6797 71.4453 68.2578 71.2344L68.5391 73.7891C67.7734 74.1172 66.9062 74.2812 65.9375 74.2812C65.3438 74.2812 64.8086 74.1836 64.332 73.9883C63.8555 73.7852 63.5039 73.5273 63.2773 73.2148C63.0586 72.8945 62.9062 72.4648 62.8203 71.9258C62.75 71.543 62.7148 70.7695 62.7148 69.6055V64.1797H61.2031V61.5547H62.7148V59.082L66.0195 57.1602V61.5547H68.2695ZM70.5547 59.8672V56.8203H73.8477V59.8672H70.5547ZM70.5547 74V61.5547H73.8477V74H70.5547ZM88.0859 65.2344L84.8398 65.8203C84.7305 65.1719 84.4805 64.6836 84.0898 64.3555C83.707 64.0273 83.207 63.8633 82.5898 63.8633C81.7695 63.8633 81.1133 64.1484 80.6211 64.7188C80.1367 65.2812 79.8945 66.2266 79.8945 67.5547C79.8945 69.0312 80.1406 70.0742 80.6328 70.6836C81.1328 71.293 81.8008 71.5977 82.6367 71.5977C83.2617 71.5977 83.7734 71.4219 84.1719 71.0703C84.5703 70.7109 84.8516 70.0977 85.0156 69.2305L88.25 69.7812C87.9141 71.2656 87.2695 72.3867 86.3164 73.1445C85.3633 73.9023 84.0859 74.2812 82.4844 74.2812C80.6641 74.2812 79.2109 73.707 78.125 72.5586C77.0469 71.4102 76.5078 69.8203 76.5078 67.7891C76.5078 65.7344 77.0508 64.1367 78.1367 62.9961C79.2227 61.8477 80.6914 61.2734 82.543 61.2734C84.0586 61.2734 85.2617 61.6016 86.1523 62.2578C87.0508 62.9062 87.6953 63.8984 88.0859 65.2344ZM19.918 102L14.9023 89.5547H18.3594L20.7031 95.9062L21.3828 98.0273C21.5625 97.4883 21.6758 97.1328 21.7227 96.9609C21.832 96.6094 21.9492 96.2578 22.0742 95.9062L24.4414 89.5547H27.8281L22.8828 102H19.918ZM37.0625 98.0391L40.3438 98.5898C39.9219 99.793 39.2539 100.711 38.3398 101.344C37.4336 101.969 36.2969 102.281 34.9297 102.281C32.7656 102.281 31.1641 101.574 30.125 100.16C29.3047 99.0273 28.8945 97.5977 28.8945 95.8711C28.8945 93.8086 29.4336 92.1953 30.5117 91.0312C31.5898 89.8594 32.9531 89.2734 34.6016 89.2734C36.4531 89.2734 37.9141 89.8867 38.9844 91.1133C40.0547 92.332 40.5664 94.2031 40.5195 96.7266H32.2695C32.293 97.7031 32.5586 98.4648 33.0664 99.0117C33.5742 99.5508 34.207 99.8203 34.9648 99.8203C35.4805 99.8203 35.9141 99.6797 36.2656 99.3984C36.6172 99.1172 36.8828 98.6641 37.0625 98.0391ZM37.25 94.7109C37.2266 93.7578 36.9805 93.0352 36.5117 92.543C36.043 92.043 35.4727 91.793 34.8008 91.793C34.082 91.793 33.4883 92.0547 33.0195 92.5781C32.5508 93.1016 32.3203 93.8125 32.3281 94.7109H37.25ZM46.3672 102H43.0742V89.5547H46.1328V91.3242C46.6562 90.4883 47.125 89.9375 47.5391 89.6719C47.9609 89.4062 48.4375 89.2734 48.9688 89.2734C49.7188 89.2734 50.4414 89.4805 51.1367 89.8945L50.1172 92.7656C49.5625 92.4062 49.0469 92.2266 48.5703 92.2266C48.1094 92.2266 47.7188 92.3555 47.3984 92.6133C47.0781 92.8633 46.8242 93.3203 46.6367 93.9844C46.457 94.6484 46.3672 96.0391 46.3672 98.1562V102ZM51.4062 98.4492L54.7109 97.9453C54.8516 98.5859 55.1367 99.0742 55.5664 99.4102C55.9961 99.7383 56.5977 99.9023 57.3711 99.9023C58.2227 99.9023 58.8633 99.7461 59.293 99.4336C59.582 99.2148 59.7266 98.9219 59.7266 98.5547C59.7266 98.3047 59.6484 98.0977 59.4922 97.9336C59.3281 97.7773 58.9609 97.6328 58.3906 97.5C55.7344 96.9141 54.0508 96.3789 53.3398 95.8945C52.3555 95.2227 51.8633 94.2891 51.8633 93.0938C51.8633 92.0156 52.2891 91.1094 53.1406 90.375C53.9922 89.6406 55.3125 89.2734 57.1016 89.2734C58.8047 89.2734 60.0703 89.5508 60.8984 90.1055C61.7266 90.6602 62.2969 91.4805 62.6094 92.5664L59.5039 93.1406C59.3711 92.6562 59.1172 92.2852 58.7422 92.0273C58.375 91.7695 57.8477 91.6406 57.1602 91.6406C56.293 91.6406 55.6719 91.7617 55.2969 92.0039C55.0469 92.1758 54.9219 92.3984 54.9219 92.6719C54.9219 92.9062 55.0312 93.1055 55.25 93.2695C55.5469 93.4883 56.5703 93.7969 58.3203 94.1953C60.0781 94.5938 61.3047 95.082 62 95.6602C62.6875 96.2461 63.0312 97.0625 63.0312 98.1094C63.0312 99.25 62.5547 100.23 61.6016 101.051C60.6484 101.871 59.2383 102.281 57.3711 102.281C55.6758 102.281 54.332 101.938 53.3398 101.25C52.3555 100.562 51.7109 99.6289 51.4062 98.4492ZM65.9258 87.8672V84.8203H69.2188V87.8672H65.9258ZM65.9258 102V89.5547H69.2188V102H65.9258ZM71.8438 95.6016C71.8438 94.5078 72.1133 93.4492 72.6523 92.4258C73.1914 91.4023 73.9531 90.6211 74.9375 90.082C75.9297 89.543 77.0352 89.2734 78.2539 89.2734C80.1367 89.2734 81.6797 89.8867 82.8828 91.1133C84.0859 92.332 84.6875 93.875 84.6875 95.7422C84.6875 97.625 84.0781 99.1875 82.8594 100.43C81.6484 101.664 80.1211 102.281 78.2773 102.281C77.1367 102.281 76.0469 102.023 75.0078 101.508C73.9766 100.992 73.1914 100.238 72.6523 99.2461C72.1133 98.2461 71.8438 97.0312 71.8438 95.6016ZM75.2188 95.7773C75.2188 97.0117 75.5117 97.957 76.0977 98.6133C76.6836 99.2695 77.4062 99.5977 78.2656 99.5977C79.125 99.5977 79.8438 99.2695 80.4219 98.6133C81.0078 97.957 81.3008 97.0039 81.3008 95.7539C81.3008 94.5352 81.0078 93.5977 80.4219 92.9414C79.8438 92.2852 79.125 91.957 78.2656 91.957C77.4062 91.957 76.6836 92.2852 76.0977 92.9414C75.5117 93.5977 75.2188 94.543 75.2188 95.7773ZM98.5977 102H95.3047V95.6484C95.3047 94.3047 95.2344 93.4375 95.0938 93.0469C94.9531 92.6484 94.7227 92.3398 94.4023 92.1211C94.0898 91.9023 93.7109 91.793 93.2656 91.793C92.6953 91.793 92.1836 91.9492 91.7305 92.2617C91.2773 92.5742 90.9648 92.9883 90.793 93.5039C90.6289 94.0195 90.5469 94.9727 90.5469 96.3633V102H87.2539V89.5547H90.3125V91.3828C91.3984 89.9766 92.7656 89.2734 94.4141 89.2734C95.1406 89.2734 95.8047 89.4062 96.4062 89.6719C97.0078 89.9297 97.4609 90.2617 97.7656 90.668C98.0781 91.0742 98.293 91.5352 98.4102 92.0508C98.5352 92.5664 98.5977 93.3047 98.5977 94.2656V102Z" fill="white"/>
</svg>
